HIERARCHY
ROOT Hips
{
  OFFSET 265.287 66.7526 -254.649
  CHANNELS 6 Xposition Yposition Zposition Zrotation Xrotation Yrotation
  JOINT LeftUpLeg
  {
    OFFSET 8.64259 1.95398 -2.38835
    CHANNELS 3 Zrotation Xrotation Yrotation
    JOINT LeftLeg
    {
      OFFSET 43.7702 0 0
      CHANNELS 3 Zrotation Xrotation Yrotation
      JOINT LeftFoot
      {
        OFFSET 40.6238 0 0
        CHANNELS 3 Zrotation Xrotation Yrotation
        JOINT LeftToeBase
        {
          OFFSET 12.7242 0 0
          CHANNELS 3 Zrotation Xrotation Yrotation
          End Site
          {
            OFFSET 0 0 0
          }
        }
      }
    }
  }
  JOINT RightUpLeg
  {
    OFFSET -8.2249 1.95398 -2.59336
    CHANNELS 3 Zrotation Xrotation Yrotation
    JOINT RightLeg
    {
      OFFSET 43.5653 0 0
      CHANNELS 3 Zrotation Xrotation Yrotation
      JOINT RightFoot
      {
        OFFSET 40.6238 0 0
        CHANNELS 3 Zrotation Xrotation Yrotation
        JOINT RightToeBase
        {
          OFFSET 12.7242 0 0
          CHANNELS 3 Zrotation Xrotation Yrotation
          End Site
          {
            OFFSET 0 0 0
          }
        }
      }
    }
  }
  JOINT Spine
  {
    OFFSET 0.165834 0.87714 6.61349
    CHANNELS 3 Zrotation Xrotation Yrotation
    JOINT Spine1
    {
      OFFSET 7.38963 1.71661e-005 0
      CHANNELS 3 Zrotation Xrotation Yrotation
      JOINT Spine2
      {
        OFFSET 11.9445 1.14441e-005 0
        CHANNELS 3 Zrotation Xrotation Yrotation
        JOINT Spine3
        {
          OFFSET 14.7254 4.19617e-005 0
          CHANNELS 3 Zrotation Xrotation Yrotation
          JOINT Spine4
          {
            OFFSET 10.9679 0 0
            CHANNELS 3 Zrotation Xrotation Yrotation
            JOINT RightShoulder
            {
              OFFSET 2.46616 -1.6653 3.69651
              CHANNELS 3 Zrotation Xrotation Yrotation
              JOINT RightArm
              {
                OFFSET 13.0012 0 0
                CHANNELS 3 Zrotation Xrotation Yrotation
                JOINT RightForeArm
                {
                  OFFSET 28.7848 1.52588e-005 0
                  CHANNELS 3 Zrotation Xrotation Yrotation
                  JOINT RightHand
                  {
                    OFFSET 26.5688 1.52588e-005 0
                    CHANNELS 3 Zrotation Xrotation Yrotation
                    End Site
                    {
                      OFFSET 0 0 0
                    }
                  }
                }
              }
            }
            JOINT LeftShoulder
            {
              OFFSET 2.38034 -1.29275 -3.7523
              CHANNELS 3 Zrotation Xrotation Yrotation
              JOINT LeftArm
              {
                OFFSET 16.3182 6.10351e-005 0
                CHANNELS 3 Zrotation Xrotation Yrotation
                JOINT LeftForeArm
                {
                  OFFSET 27.0901 0 0
                  CHANNELS 3 Zrotation Xrotation Yrotation
                  JOINT LeftHand
                  {
                    OFFSET 24.5451 1.52588e-005 0
                    CHANNELS 3 Zrotation Xrotation Yrotation
                    End Site
                    {
                      OFFSET 0 0 0
                    }
                  }
                }
              }
            }
            JOINT Neck
            {
              OFFSET 5.0226 -0.0266342 0
              CHANNELS 3 Zrotation Xrotation Yrotation
              JOINT Head
              {
                OFFSET 6.69364 2.86102e-005 0
                CHANNELS 3 Zrotation Xrotation Yrotation
                End Site
                {
                  OFFSET 0 0 0
                }
              }
            }
          }
        }
      }
    }
  }
}
MOTION
Frames:	15
Frame Time:	0.0416667
103.525 92.2292 -105.484 -71.4974 -47.0812 -75.0716 -176.776 4.23738 89.3342 -25.4134 24.5057 5.03383 74.2254 14.2431 26.0901 47.5438 -5.57741 2.09058 168.88 49.607 87.531 -50.783 -9.71832 3.56679 64.0045 1.38915 16.6756 58.6997 -4.27654 0.303588 -0.669007 9.55061 -90.1677 7.76936 -1.40863 -0.255342 -3.90082 -1.41848 -0.193088 -26.441 -1.26675 -0.666961 -6.42835 -1.26674 -0.666956 100.59 -49.3279 -84.6417 26.1019 1.09172 -9.25226 0.311517 -9.25635 -4.28457 -9.08782 -0.540203 1.62524 -88.3827 -49.2839 80.7823 0.596325 5.64972 -25.918 16.6232 1.90378 -55.1059 19.0239 -0.666313 -7.40456 23.768 1.41023 -3.45884 -1.15159 2.76707 9.23579 
110.845 94.0049 -111.593 -71.9041 -46.2275 -78.8361 -177.918 11.4043 84.7844 -26.5245 23.1623 3.06746 70.5255 11.0512 25.9207 45.5993 -5.26014 -1.48223 169.354 42.0432 85.5345 -67.1854 -11.9306 0.782164 62.8545 0.98453 15.7287 58.2407 -4.17229 0.573877 -0.385412 9.61268 -89.6976 7.65372 -0.637849 0.626337 -4.01719 -0.609653 0.653789 -26.5535 -0.796614 0.405675 -6.54082 -0.796611 0.40567 100.171 -49.1013 -85.3106 27.4224 -0.470767 -13.4031 0.694855 -6.30771 -5.54151 -11.523 -0.739791 2.52275 -88.7856 -50.9764 80.4981 -1.84916 6.64775 -23.0847 15.5888 5.6355 -45.3208 18.2982 -0.28623 -5.33527 18.181 -0.0053448 -3.41098 4.5294 1.76509 10.651 
116.083 95.5653 -115.403 -73.1887 -42.058 -75.6542 -176.958 16.5365 87.9905 -28.4288 21.5848 3.78239 68.7477 8.45037 24.2324 44.0149 -4.73008 -0.999089 173.462 24.7106 90.7854 -63.8588 -5.23283 -0.460941 62.266 1.96267 24.1036 51.948 -3.3491 -0.0923516 0.139917 9.15665 -90.0099 8.56063 0.274815 -0.0370612 -3.11028 0.27292 -0.0491051 -25.6457 0.273247 0.0472462 -5.63302 0.273248 0.0472588 101.051 -47.959 -83.9467 25.986 -6.80144 -16.7327 0.0556536 -11.4975 -14.5307 -7.40338 -0.254577 -1.26051 -87.4852 -51.7985 82.568 -5.76971 14.7849 -10.103 12.2798 10.5626 -35.1931 12.3156 -0.127369 -4.656 14.1562 0.102975 -7.0539 2.68268 2.6554 13.0689 
121.676 96.0807 -120.397 -74.1061 -38.2248 -79.5835 -176.165 21.3175 85.8 -27.5078 18.5601 1.33446 66.3828 6.59823 22.4296 40.5568 -3.63442 -1.91992 176.541 11.9528 88.6304 -42.9005 -10.5394 -1.6333 58.5907 3.53072 23.9332 53.5868 -2.87505 6.74004 0.347009 8.84659 -89.6023 9.17599 0.870069 0.727591 -2.49488 0.90125 0.688579 -25.0295 0.6112 0.955442 -5.01689 0.611196 0.955431 101.47 -48.7676 -83.2668 24.1003 -9.3388 -15.9964 -9.01943 -15.1013 -35.5814 -4.18091 -0.0639715 -4.06372 -86.7526 -50.7438 83.4861 -14.4911 18.3149 2.27025 16.3488 23.8125 -32.1864 8.16684 0.0367406 -3.16446 17.6534 0.580823 -7.31805 -0.53132 3.01213 12.7334 
127.768 96.3812 -125.128 -74.8307 -37.791 -81.7876 -176.107 25.6339 84.3868 -26.2429 17.4965 0.0789719 61.8544 4.10802 21.1139 39.0896 -3.16251 -2.81284 176.527 4.81456 87.9331 -22.5782 -8.00277 -1.81479 56.1827 5.02791 25.111 48.4701 -2.42747 6.24572 0.473765 8.84627 -89.6359 9.17791 1.10793 0.641808 -2.4927 1.1351 0.592414 -25.0291 0.863825 0.94512 -5.01648 0.863822 0.945114 101.309 -48.6812 -83.5231 22.5236 -12.2018 -16.7474 -7.99427 -8.18407 -48.3364 -16.6851 -0.432954 -2.25209 -86.4777 -51.5784 84.024 -18.9866 15.474 4.80041 14.0017 34.1393 -24.0642 1.84554 -0.0673442 -3.27951 20.6924 0.605821 -4.87574 -1.72013 2.34702 12.8584 
133.481 96.572 -129.992 -74.4818 -38.7446 -81.9364 -174.711 29.8395 84.7567 -24.0496 19.0728 -1.13326 58.5953 1.39296 12.5025 43.8161 -4.54495 2.56311 175.869 7.67496 88.0442 -22.6604 -3.08471 -0.858661 67.3402 2.4229 22.2666 38.6639 -1.48668 2.50437 0.600546 8.64631 -89.8602 9.58075 1.26039 0.181122 -2.08958 1.26716 0.125454 -24.6289 1.14768 0.551597 -4.61627 1.14768 0.551586 101.556 -48.9374 -83.1277 22.2876 -12.2929 -16.305 -9.09306 -6.3975 -53.6248 -14.6957 -0.266116 -3.29206 -85.7111 -52.1512 85.2363 -19.8301 15.8477 1.14008 6.43297 36.2093 -14.428 -2.91951 -0.0876892 -3.27784 18.227 0.162474 -5.25649 -0.971985 2.00255 12.9208 
137.569 96.2918 -133.726 -77.3464 -42.3566 -83.6961 -174.605 31.9332 85.5029 -32.6264 20.5509 -1.01706 56.7446 0.169101 8.15245 53.7421 -6.58641 9.115 175.97 8.25511 89.0574 -24.6657 -1.34818 -0.576943 74.111 0.724276 17.0563 31.1612 -0.456844 1.18973 0.380242 8.57723 -90.0225 9.7199 0.747768 -0.103422 -1.95085 0.742514 -0.136249 -24.4877 0.744281 0.126098 -4.47505 0.744281 0.126101 102.142 -49.3595 -82.2018 22.3674 -13.5457 -15.2541 -10.318 -9.63616 -49.3936 -12.9528 -0.21217 -3.38093 -86.2948 -51.4705 84.2785 -19.3411 18.8062 -0.545476 7.9457 35.9364 -17.987 -4.063 -0.0825868 -4.90867 16.5792 0.0394163 -5.40529 -2.44374 1.6709 11.5418 
140.089 96.9608 -135.729 -81.8042 -43.7713 -86.135 -175.257 28.7632 87.0296 -47.8576 15.299 0.259465 63.1049 4.75003 13.0462 47.0831 -5.30971 5.70926 175.991 6.60669 89.1408 -24.2105 -0.962159 -0.654763 72.6699 2.07823 19.1514 28.9837 -0.0717717 0.346775 0.278426 8.37242 -90.1056 10.1296 0.506711 -0.253328 -1.54125 0.495086 -0.275389 -24.0772 0.559437 -0.0893229 -4.06451 0.559426 -0.0893243 101.652 -50.7608 -82.9599 23.4265 -12.7209 -10.7846 -10.77 -17.155 -40.4308 -11.8699 -0.439151 -0.929333 -85.4832 -50.3331 85.3307 -18.7124 19.5465 -4.75302 8.75929 32.915 -19.4888 -0.45248 -0.0760417 -3.48508 14.2217 0.222296 -6.32602 -4.7851 1.74033 12.3623 
142.238 97.4756 -136.703 -84.1316 -44.997 -88.282 -177.944 19.0006 86.5737 -45.2805 14.2852 1.89959 62.7737 5.12383 13.7556 49.5986 -5.94078 5.87705 175.817 7.1019 88.4619 -25.7902 -1.20132 -0.840436 71.6005 1.60847 16.9123 29.762 -0.305705 1.59548 0.209003 8.00427 -90.0303 10.8637 0.402047 -0.100951 -0.807231 0.397217 -0.118565 -23.3428 0.413803 0.0245474 -3.33015 0.413792 0.0245431 102.014 -51.449 -82.3991 26.0353 -7.53314 -7.08771 -7.24344 -25.3839 -25.9904 -12.1978 -0.562574 0.160866 -85.4976 -50.3492 85.3102 -17.0903 17.5738 -9.96649 9.35542 26.687 -20.5727 3.8389 -0.0856958 -4.20135 10.8253 0.0991507 -6.37827 -5.21378 1.40673 11.4562 
144.185 97.8178 -137.257 -84.1108 -45.9713 -84.8247 -177.352 4.62954 90.1687 -20.1721 20.8201 4.37378 61.9643 5.68814 19.8872 46.8849 -5.52915 0.398225 176.796 6.87817 91.4136 -22.8976 1.89596 -0.370123 68.4938 2.4083 19.0007 30.5714 -0.393949 1.36649 0.0193952 7.49176 -90.4159 11.8932 -0.156999 -0.805597 0.222041 -0.192302 -0.797919 -22.3114 0.0923941 -0.815532 -2.29875 0.0923824 -0.815539 101.671 -51.6109 -82.9221 27.5393 -1.26107 -5.22103 -0.475857 -27.16 -9.02745 -11.0091 -0.792224 3.36833 -84.9778 -51.2025 86.2015 -16.8089 16.7481 -11.86 10.6769 18.3426 -26.0103 9.61835 -0.0839219 -4.35636 8.17923 0.908868 -6.53497 -5.67572 2.03984 11.6291 
145.832 98.9731 -138.529 -83.2826 -48.535 -83.862 -174.482 0.46436 91.0555 -7.67446 22.4955 3.94169 61.2548 2.90512 11.9542 39.3326 -3.24378 -1.27184 177.126 5.76758 91.8679 -17.2375 2.85001 -0.269167 63.7587 2.64334 16.6713 31.8738 -0.531996 0.953727 -0.335338 6.9438 -90.3709 12.9837 -0.843716 -0.638991 1.3129 -0.871023 -0.601253 -21.2223 -0.612689 -0.863019 -1.20966 -0.612691 -0.863032 102.834 -52.7387 -81.1597 27.2288 4.93087 -2.28138 1.29544 -28.1312 -0.425426 -11.5857 -1.1314 6.37179 -84.4061 -51.0716 87.0391 -17.621 16.5341 -14.4728 17.9976 23.0525 -32.8144 5.53052 -0.133182 -4.98737 5.37869 0.857824 -7.06318 -8.08128 1.72245 10.7997 
147.625 99.0706 -139.257 -82.5006 -48.5938 -83.8134 -174.239 1.86054 90.4782 -7.07848 24.9875 2.84164 59.7563 2.35109 14.2368 39.1196 -3.14382 -3.35634 176.908 7.57662 90.8172 -17.5291 4.19537 -0.407787 63.2924 3.7902 18.9251 30.08 -0.247037 0.556709 -0.204162 6.61453 -90.1599 13.6438 -0.482289 -0.254751 1.97291 -0.493039 -0.233284 -20.5625 -0.383423 -0.387923 -0.549825 -0.383437 -0.387928 102.746 -51.9235 -81.2825 30.2953 6.80428 3.73069 -1.59904 -21.3596 -3.90878 -10.8367 -1.06693 6.14194 -84.6116 -50.2142 86.6276 -15.8728 18.7311 -17.336 19.3232 21.0195 -37.1292 0.585163 -0.160146 -6.96532 5.69923 0.302277 -7.17298 -9.56532 1.1129 10.0792 
149.457 99.3313 -140.109 -87.8031 -47.3883 -87.0241 -174.853 0.374833 90.1572 -9.0954 24.2261 3.64635 58.7769 2.24939 15.935 39.7226 -3.35284 -2.95901 176.901 4.38368 90.941 -15.611 2.41705 -0.560559 62.4004 3.76922 17.9362 28.8928 -0.0751902 0.538087 0.0161634 6.96315 -90.2275 12.9475 -0.0770363 -0.445055 1.27645 -0.0965352 -0.44124 -21.2581 0.0602771 -0.447631 -1.24547 0.0602698 -0.44764 101.992 -52.108 -82.434 29.7929 4.74746 3.73171 -2.20835 -20.7067 -6.47592 -5.15809 -0.333328 3.05042 -85.6675 -50.839 85.1195 -14.8497 18.3634 -17.496 23.2508 20.7847 -41.7403 2.19782 -0.267849 -8.7883 5.28266 0.389943 -4.82902 -7.47185 0.990344 8.78343 
150.764 99.483 -140.607 -89.3202 -44.0046 -88.1312 -174.688 -0.44343 89.8159 -8.46221 21.7007 3.12001 58.2574 2.12208 16.732 39.6888 -3.34206 -2.85021 176.513 4.28467 90.224 -14.9888 -0.28732 -0.434905 61.7426 3.66811 18.0024 27.6056 -0.0781345 1.97983 0.0701987 6.87823 -90.2881 13.117 0.000697277 -0.576473 1.44595 -0.0246588 -0.575946 -21.0883 0.173926 -0.549614 -1.0756 0.173924 -0.549609 102.75 -50.7038 -81.2614 29.5908 2.94931 -0.46821 -3.17307 -27.9062 -9.61182 -5.0321 -0.384581 4.14427 -84.4826 -52.3164 87.0683 -16.2938 18.2862 -13.934 18.781 18.1886 -38.0095 9.19727 -0.325545 -6.83382 4.65298 1.77242 -3.85899 -9.7208 1.90432 9.6713 
151.614 99.5674 -141.186 -91.1691 -41.7713 -89.179 -173.894 -1.4109 90.0451 -8.03119 20.4331 2.52822 57.9981 1.93316 16.4861 39.6468 -3.32757 -2.88334 176.879 3.70719 90.3534 -14.7259 -2.02731 -0.834883 60.9739 3.70312 18.2631 27.5447 -0.0879127 2.13278 0.022192 6.87722 -90.2817 13.1189 -0.0915338 -0.552311 1.44783 -0.115728 -0.547762 -21.0864 0.0786938 -0.554289 -1.07374 0.0787103 -0.55429 102.629 -51.9371 -81.461 28.9484 0.48229 -2.57548 -4.14072 -23.2862 -15.2777 -9.11414 -0.728042 4.32164 -84.217 -52.0316 87.4281 -18.5142 17.5783 -11.4375 17.5212 23.7497 -32.9488 3.02737 -0.156201 -5.76239 4.24374 2.34095 -6.29875 -9.75945 2.74886 12.1625 
